<svg width="110" height="50" viewBox="0 0 523 165" fill="none" xmlns="http://www.w3.org/2000/svg">
<path d="M43.2949 121.969V43.0781C43.2949 43.0781 59.5977 43.0781 92.2031 43.0781C100.105 43.0781 106.879 46.9629 112.523 54.7324C118.234 62.4355 121.09 71.6992 121.09 82.5234C121.09 93.4141 118.234 102.711 112.523 110.414C106.879 118.117 100.105 121.969 92.2031 121.969H43.2949ZM50.4668 114.797H92.2031C98.1133 114.797 103.16 111.643 107.344 105.334C111.594 99.0254 113.719 91.4219 113.719 82.5234C113.719 73.5586 111.594 65.9551 107.344 59.7129C103.16 53.4043 98.1133 50.25 92.2031 50.25H50.4668V114.797ZM36.123 129.141H92.2031C102.098 129.141 110.598 124.592 117.703 115.494C124.875 106.33 128.461 95.3398 128.461 82.5234C128.461 74.0898 126.801 66.2871 123.48 59.1152C120.227 51.9434 115.811 46.2988 110.232 42.1816C104.721 37.998 98.7109 35.9062 92.2031 35.9062H36.123V129.141ZM28.9512 136.312V28.7344H92.2031C99.9727 28.7344 107.211 31.125 113.918 35.9062C120.625 40.6875 125.938 47.2285 129.855 55.5293C133.84 63.7637 135.832 72.7617 135.832 82.5234C135.832 92.2188 133.84 101.217 129.855 109.518C125.938 117.818 120.625 124.359 113.918 129.141C107.211 133.922 99.9727 136.312 92.2031 136.312H28.9512ZM21.7793 143.484H92.2031C101.301 143.484 109.734 140.762 117.504 135.316C125.34 129.871 131.582 122.467 136.23 113.104C140.879 103.74 143.203 93.5469 143.203 82.5234C143.203 71.5664 140.879 61.4062 136.23 52.043C131.582 42.6133 125.34 35.1758 117.504 29.7305C109.668 24.2852 101.234 21.5625 92.2031 21.5625H21.7793V143.484ZM14.6074 150.656V14.3906H92.2031C102.562 14.3906 112.225 17.4453 121.189 23.5547C130.154 29.5977 137.293 37.8652 142.605 48.3574C147.918 58.8496 150.574 70.2383 150.574 82.5234C150.574 94.8086 147.918 106.197 142.605 116.689C137.293 127.182 130.154 135.482 121.189 141.592C112.225 147.635 102.562 150.656 92.2031 150.656H14.6074ZM7.43555 157.828H92.2031C100.902 157.828 109.303 155.836 117.404 151.852C125.506 147.867 132.512 142.521 138.422 135.814C144.332 129.107 149.047 121.105 152.566 111.809C156.152 102.445 157.945 92.6836 157.945 82.5234C157.945 72.3633 156.152 62.6348 152.566 53.3379C149.047 44.041 144.332 36.0391 138.422 29.332C132.512 22.5586 125.506 17.1797 117.404 13.1953C109.303 9.21094 100.902 7.21875 92.2031 7.21875H7.43555V157.828ZM92.2031 165H0.263672V0.046875H92.2031C105.152 0.046875 117.238 3.73242 128.461 11.1035C139.684 18.4746 148.615 28.502 155.256 41.1855C161.963 53.8691 165.316 67.6484 165.316 82.5234C165.316 93.6797 163.324 104.371 159.34 114.598C155.422 124.758 150.176 133.523 143.602 140.895C137.027 148.266 129.225 154.143 120.193 158.525C111.229 162.842 101.898 165 92.2031 165ZM242.016 116.59L244.904 109.418H269.408L272.297 116.59H242.016ZM236.438 130.934L239.227 123.762H274.986L278.074 130.934H236.438ZM230.859 145.277L233.648 138.105H280.664L283.652 145.277H230.859ZM172.588 165H164.818L230.062 0.046875H237.832L302.977 165H295.307L233.947 9.70898L172.588 165ZM234.844 26.7422L238.928 35.9062L187.928 165H180.258L234.844 26.7422ZM242.812 45.668L246.598 55.5293L203.467 165H195.697L242.812 45.668ZM250.383 65.3906L254.168 75.4512L218.807 165H211.137L250.383 65.3906ZM349.295 165H341.525L276.381 0.046875H284.051L349.295 165ZM268.611 0.046875L333.855 165H326.186L260.941 0.046875H268.611ZM253.172 0.046875L318.416 165H310.646L245.502 0.046875H253.172ZM478.986 85.6113L471.814 73.7578V0.046875H478.986V85.6113ZM493.33 109.119L486.158 97.0664V0.046875H493.33V109.119ZM507.674 132.926L500.502 120.773V0.046875H507.674V132.926ZM404.877 79.4355L412.049 91.2891V165H404.877V79.4355ZM390.533 55.9277L397.705 67.9805V165H390.533V55.9277ZM376.189 32.1211L383.361 44.2734V165H376.189V32.1211ZM378.68 0.046875H387.047L488.449 165H480.082L378.68 0.046875ZM395.613 0.046875H404.08L505.383 165H496.816L395.613 0.046875ZM412.447 0.046875H420.814L514.846 153.346V0.046875H522.018V165C522.018 165 519.195 165 513.551 165L412.447 0.046875ZM369.018 11.7012V165H361.846V0.046875C361.846 0.046875 364.701 0.046875 370.412 0.046875L471.516 165H463.248L369.018 11.7012Z" fill="url(#paint0_linear_1_3)"/>
<defs>
<linearGradient id="paint0_linear_1_3" x1="-24" y1="38.5" x2="532.075" y2="164.671" gradientUnits="userSpaceOnUse">
<stop stop-color="#170196"/>
<stop offset="0.0001" stop-color="#00F3EF"/>
<stop offset="1" stop-color="#0E41F6"/>
</linearGradient>
</defs>
</svg>
